<svg width="59" height="40" viewBox="0 0 59 40" fill="none" xmlns="http://www.w3.org/2000/svg">
<path d="M52.9262 2.23633H37.272V5.96353H52.9262V2.23633Z" fill="white"/>
<path d="M45.3973 9.61622C31.4576 9.61622 31.4576 24.3759 31.4576 24.3759C31.4576 24.3759 30.4885 39.0611 45.3973 39.0611C45.3973 39.0611 57.8462 39.5084 57.8462 29.0722H51.4354C51.4354 29.0722 51.659 32.9485 45.6209 32.9485C45.6209 32.9485 39.2102 33.5448 39.2102 26.0904H58.0698C58.0698 26.0904 60.0825 9.54167 45.3973 9.61622ZM51.0627 20.8724H39.1356C39.1356 20.8724 39.9556 14.9834 45.5464 14.9834C51.1372 14.9834 51.0627 20.8724 51.0627 20.8724Z" fill="white"/>
<path d="M23.1832 17.3688C23.1832 17.3688 28.6994 16.996 28.6994 10.138C28.6994 3.27994 24.1523 0 18.4124 0H0V38.7629H18.4869C18.4869 38.7629 29.9667 38.3902 29.9667 26.7613C29.9667 26.7613 30.4885 17.2942 23.1832 17.3688ZM8.19984 6.70896H18.4869C18.4869 6.70896 21.0214 6.55987 21.0214 10.5107C21.0214 14.4615 19.5305 14.9088 17.816 14.9088H8.19984V6.70896ZM17.8906 31.3085H8.19984V20.8723H18.4869C18.4869 20.8723 22.2887 20.9469 22.2141 26.2395C22.2141 30.7121 19.3814 31.3085 17.8906 31.3085Z" fill="white"/>
</svg>
