<svg width="74" height="74" viewBox="0 0 74 74" fill="none" xmlns="http://www.w3.org/2000/svg">
<g filter="url(#filter0_d_8_34)">
<path d="M22.3333 0C12.2243 0 4 8.22433 4 18.3333V47.6667C4 57.7757 12.2243 66 22.3333 66H51.6667C61.7757 66 70 57.7757 70 47.6667V18.3333C70 8.22433 61.7757 0 51.6667 0H22.3333ZM22.3333 7.33333H51.6667C57.7313 7.33333 62.6667 12.2687 62.6667 18.3333V47.6667C62.6667 53.7313 57.7313 58.6667 51.6667 58.6667H22.3333C16.2687 58.6667 11.3333 53.7313 11.3333 47.6667V18.3333C11.3333 12.2687 16.2687 7.33333 22.3333 7.33333ZM55.3333 11C54.3609 11 53.4282 11.3863 52.7406 12.0739C52.053 12.7616 51.6667 13.6942 51.6667 14.6667C51.6667 15.6391 52.053 16.5718 52.7406 17.2594C53.4282 17.947 54.3609 18.3333 55.3333 18.3333C56.3058 18.3333 57.2384 17.947 57.9261 17.2594C58.6137 16.5718 59 15.6391 59 14.6667C59 13.6942 58.6137 12.7616 57.9261 12.0739C57.2384 11.3863 56.3058 11 55.3333 11ZM37 14.6667C26.891 14.6667 18.6667 22.891 18.6667 33C18.6667 43.109 26.891 51.3333 37 51.3333C47.109 51.3333 55.3333 43.109 55.3333 33C55.3333 22.891 47.109 14.6667 37 14.6667ZM37 22C43.0647 22 48 26.9353 48 33C48 39.0647 43.0647 44 37 44C30.9353 44 26 39.0647 26 33C26 26.9353 30.9353 22 37 22Z" fill="white"/>
</g>
<defs>
<filter id="filter0_d_8_34" x="0" y="0" width="74" height="74" filterUnits="userSpaceOnUse" color-interpolation-filters="sRGB">
<feFlood flood-opacity="0" result="BackgroundImageFix"/>
<feColorMatrix in="SourceAlpha" type="matrix" values="0 0 0 0 0 0 0 0 0 0 0 0 0 0 0 0 0 0 127 0" result="hardAlpha"/>
<feOffset dy="4"/>
<feGaussianBlur stdDeviation="2"/>
<feComposite in2="hardAlpha" operator="out"/>
<feColorMatrix type="matrix" values="0 0 0 0 0 0 0 0 0 0 0 0 0 0 0 0 0 0 0.25 0"/>
<feBlend mode="normal" in2="BackgroundImageFix" result="effect1_dropShadow_8_34"/>
<feBlend mode="normal" in="SourceGraphic" in2="effect1_dropShadow_8_34" result="shape"/>
</filter>
</defs>
</svg>
