<svg width="63" height="63" viewBox="0 0 63 63" fill="none" xmlns="http://www.w3.org/2000/svg">
<path d="M31.5 0.699951C14.4907 0.699951 0.699997 14.4907 0.699997 31.5C0.699997 48.5093 14.4907 62.2999 31.5 62.2999C48.5093 62.2999 62.3 48.5093 62.3 31.5C62.3 14.4907 48.5093 0.699951 31.5 0.699951ZM19.9397 14.5677C22.1009 14.5677 23.5408 16.0076 23.5408 17.9274C23.5408 19.8473 22.1009 21.2872 19.701 21.2872C17.5399 21.2898 16.1 19.8473 16.1 17.9274C16.1 16.0076 17.5399 14.5677 19.9397 14.5677ZM23.8 44.3333H16.1V23.7999H23.8V44.3333ZM49.4667 44.3333H42.2184V33.1118C42.2184 30.0087 40.2857 29.2926 39.5619 29.2926C38.8381 29.2926 36.4203 29.77 36.4203 33.1118C36.4203 33.5892 36.4203 44.3333 36.4203 44.3333H28.9333V23.7999H36.4229V26.6644C37.3879 24.9935 39.3206 23.7999 42.9448 23.7999C46.5689 23.7999 49.4667 26.6644 49.4667 33.1118V44.3333Z" fill="white"/>
</svg>
