<svg width="85" height="94" viewBox="0 0 85 94" fill="none" xmlns="http://www.w3.org/2000/svg">
<path d="M85 78.4883C85.0158 87.0052 78.0949 93.925 69.5392 93.9447L66.8624 93.9487C65.8322 93.9526 64.9174 93.933 64.1098 93.9014C63.3024 93.8659 62.4592 93.7397 61.5763 93.5228C60.6972 93.306 59.7227 92.9393 58.6527 92.4307C57.6703 91.9575 56.477 91.3306 55.0809 90.5459C54.87 90.4276 54.6076 90.4276 54.4007 90.5498C53.0086 91.3384 51.8233 91.9694 50.8369 92.4464C49.7748 92.959 48.8004 93.3296 47.9214 93.5504C47.0383 93.7713 46.199 93.9014 45.3877 93.9408C44.5842 93.9763 43.6653 93.996 42.6352 93.9999C30.5236 94.0197 24.4539 88.0028 24.43 75.9372L24.2272 47.5757V18.7803C24.2272 15.0699 21.2083 12.0654 17.4813 12.0654C15.9976 12.0654 14.6572 12.6647 13.6827 13.6307C12.7122 14.5967 12.1115 15.9335 12.1115 17.4121V47.5717C12.1115 47.9502 11.8013 48.2578 11.4235 48.2578H0.684137C0.306272 48.2578 1.71064e-06 47.9502 1.71064e-06 47.5717V15.4249C-0.00397582 6.9041 6.92886 0 15.4845 0H18.1654C19.1916 0 20.1064 0.0197148 20.9178 0.0552014C21.7254 0.0946308 22.5725 0.220805 23.4515 0.44161C24.3305 0.658473 25.3051 1.02911 26.371 1.53775C27.3534 2.01485 28.5428 2.64178 29.9349 3.42643C30.1497 3.54471 30.4082 3.54471 30.623 3.42643C32.0151 2.64178 33.2045 2.01091 34.1909 1.53775C35.2529 1.02911 36.2274 0.662416 37.1064 0.44161C37.9895 0.220805 38.8287 0.0946308 39.6401 0.0552014C40.4475 0.0197148 41.3623 0 42.3926 0C54.5042 0 60.562 6.03271 60.562 18.0942V47.5678C60.562 47.9463 60.2517 48.2539 59.8738 48.2539L49.1344 39.8632C48.6055 39.4572 48.4663 39.3428 48.4503 39.1772V18.8592C48.4503 14.4588 44.2422 11.1349 40.002 12.3651C37.5558 13.0748 36.3387 15.0187 36.3387 18.2046V47.5678L36.5417 75.1408C36.5496 79.5411 40.7618 82.8571 45.0018 81.623C47.4441 80.9094 48.6612 78.9615 48.6531 75.7757L48.2634 46.9921C48.2634 46.6136 48.7168 46.2823 49.0947 46.2823L60.021 54.6769C60.562 55.079 60.7012 55.2329 60.7091 55.359L60.7648 75.1764C60.7728 78.8866 63.7957 81.8872 67.5226 81.8793C70.4819 81.8715 72.8803 79.482 72.8803 76.5326V76.5209L72.8247 46.3612C72.8247 45.9827 73.1309 45.6752 73.5088 45.6752L84.2481 45.6554C84.6261 45.6554 84.9363 45.9591 84.9363 46.3415L85 78.4883Z" fill="white"/>
</svg>
